<svg xmlns="http://www.w3.org/2000/svg" viewBox="0 0 134 32" width="134" height="32"><defs><style>.cls-1{fill:#fb563e;}.cls-2{fill:url(#unitegradient);}</style><linearGradient id="unitegradient" x1="107.49" y1="6.2" x2="126.86" y2="25.57" gradientTransform="matrix(1, 0, 0, -1, 0, 31.89)" gradientUnits="userSpaceOnUse"><stop offset="0" stop-color="#fb563e"></stop><stop offset="0.3" stop-color="#fb563e"></stop><stop offset="0.7" stop-color="#9c257f"></stop><stop offset="1" stop-color="#9c257f"></stop></linearGradient></defs><path class="cls-1" d="M50.1,10H46V29.49H50.1ZM19.45,20.49V4H15.37V20.56c0,3.83-2.18,5.63-5.66,5.63s-5.62-1.8-5.62-5.63V4H0V20.49c0,6.27,4.44,9.25,9.67,9.25s9.78-3,9.78-9.25m18.33,9h4V18c0-5.46-3.47-8.33-8.09-8.33a7.65,7.65,0,0,0-5.88,2.55V10H23.78V29.49h4.08V18.57c0-3.58,2-5.42,5-5.42s4.94,1.84,4.94,5.42ZM50.67,4.78a2.6,2.6,0,1,0-2.58,2.59,2.56,2.56,0,0,0,2.58-2.59M61.81,29.49H65V26.12H62.52c-1.71,0-2.29-.6-2.29-2.05V13.25H65V10h-4.8V5.1H56.11V10H53.78v3.29h2.33V24.07c0,4,2.19,5.42,5.7,5.42M82.63,18H71.7A5.35,5.35,0,0,1,77.11,13c3,0,5.44,1.92,5.52,4.93m4.11,3.26a12.12,12.12,0,0,0,.15-2,9.15,9.15,0,0,0-9.6-9.6c-5.84,0-9.85,3.93-9.85,10.06s4.19,10.11,9.85,10.11c4.83,0,7.95-2.73,9.06-6.14H81.94a4.78,4.78,0,0,1-4.66,2.74,5.4,5.4,0,0,1-5.62-5.18Z"></path><path class="cls-2" d="M110.16,13.42V25.33c0,4.52,3.2,6.67,7,6.67s7.05-2.15,7.05-6.67v-.95h-2.94v1c0,2.76-1.58,4.07-4.08,4.07s-4.06-1.31-4.06-4.07v-12Zm-2.41-4.36c-4.57,0-6.74,3.17-6.74,6.9s2.17,7,6.74,7h1V20h-1c-2.79,0-4.11-1.56-4.11-4s1.32-4,4.11-4h12.08V9.06Zm17.89,0V12h1c2.79,0,4.11,1.55,4.11,4s-1.32,4-4.11,4H114.56V23h12c4.57,0,6.74-3.18,6.74-6.91s-2.17-7-6.74-7ZM117.21,0c-3.75,0-7,2.15-7,6.67v1h2.94v-1c0-2.76,1.58-4.07,4.09-4.07s4,1.31,4,4.07v12h2.94V6.67C124.18,2.15,121,0,117.21,0Z"></path></svg>